<svg width="37" height="38" viewBox="0 0 37 38" fill="none" xmlns="http://www.w3.org/2000/svg">
<path d="M35.1881 14.2414C34.6598 13.0911 33.8382 11.9584 32.7524 10.8726L32.2242 10.3444C32.1479 9.49928 31.9542 8.68936 31.6373 7.92639C31.2265 6.92279 30.6161 6.04244 29.8238 5.29708C29.0256 4.55171 28.0279 3.95308 26.8482 3.5129C25.6627 3.07273 24.2835 2.85558 22.7458 2.85558H22.0004C21.349 2.30976 20.6388 1.87545 19.8759 1.55853C18.884 1.1477 17.8276 0.954021 16.7418 0.983366C15.6502 1.01858 14.5175 1.30029 13.3789 1.8285C12.2285 2.35671 11.0958 3.17837 10.0101 4.26413L9.49947 4.77474C8.49 4.83343 7.53922 5.05058 6.67061 5.4438C5.66115 5.90158 4.75145 6.59999 3.96501 7.51556C3.2842 8.30787 2.78534 9.31734 2.47428 10.5205C2.15736 11.7471 1.99889 13.2378 1.99889 14.9516V14.9927C1.32396 15.7498 0.807488 16.5773 0.472955 17.4635C0.0856013 18.5023 -0.0669925 19.6409 0.0269114 20.844C0.109077 21.8887 0.467086 22.9569 1.09507 24.025C1.73479 25.1167 2.6797 26.2846 3.88871 27.4936L3.91805 27.523C3.97674 28.5324 4.1939 29.4832 4.58712 30.3518C5.0449 31.3613 5.74331 32.271 6.65887 33.0574C7.45119 33.7382 8.46066 34.2371 9.6638 34.5481C10.8904 34.8651 12.3811 35.0235 14.0949 35.0235H14.136C14.8931 35.6985 15.7206 36.2149 16.6068 36.5495C17.6456 36.9368 18.7842 37.0894 19.9874 36.9955C21.032 36.9133 22.1002 36.5553 23.1684 35.9274C24.26 35.2876 25.4279 34.3427 26.6369 33.1337L26.678 33.0926C27.5231 33.0163 28.3331 32.8227 29.096 32.5057C30.0996 32.0949 30.98 31.4845 31.7253 30.6922C32.4707 29.894 33.0693 28.8963 33.5095 27.7166C33.9497 26.5311 34.1669 25.1519 34.1669 23.6142V22.8688C34.7127 22.2174 35.147 21.5072 35.4639 20.7443C35.8806 19.7465 36.0743 18.6901 36.0391 17.5985C36.0038 16.5069 35.7221 15.3741 35.1939 14.2356L35.1881 14.2414ZM25.1579 3.8357C26.0559 4.17023 26.8541 4.68083 27.5231 5.34403C28.1922 6.00723 28.7263 6.82888 29.1078 7.7914C29.1195 7.82074 29.1313 7.85596 29.143 7.89117L29.1254 7.90878L29.1665 7.94986C29.5127 8.87129 29.6888 9.93358 29.6888 11.1191C29.6888 12.2166 29.5069 13.2437 29.143 14.171C28.7791 15.0983 28.2685 15.9082 27.6171 16.5773C26.9656 17.2463 26.1733 17.7804 25.2753 18.1502C24.3774 18.5199 23.3796 18.7077 22.3232 18.7077H22.1941C22.153 18.2793 22.0767 17.8626 21.9183 17.4752C21.7305 17.0233 21.4546 16.6242 21.1083 16.2721C22.3056 15.069 23.2388 13.9128 23.8726 12.8329C24.5006 11.7647 24.8586 10.6966 24.9408 9.65187C25.0347 8.44873 24.8821 7.31014 24.4947 6.27133C24.1074 5.23252 23.4794 4.27587 22.6284 3.42487C22.5991 3.39552 22.5756 3.37792 22.5462 3.34857C23.4618 3.37205 24.348 3.53638 25.1638 3.84157L25.1579 3.8357ZM17.1585 22.951H15.3978V15.1276H17.1526C17.6632 15.1276 18.1562 15.2157 18.6081 15.3859C19.0659 15.5561 19.4709 15.8143 19.8113 16.1547C20.1517 16.4892 20.4217 16.9118 20.6153 17.3989C20.809 17.8861 20.9088 18.4554 20.9088 19.0892C20.9088 19.6468 20.8149 20.1691 20.6329 20.6445C20.451 21.114 20.1869 21.5307 19.8524 21.8711C19.5178 22.2115 19.1187 22.4815 18.661 22.6693C18.2032 22.8571 17.6985 22.951 17.1585 22.951ZM12.3988 3.25467C13.2732 2.85558 14.1947 2.65016 15.1337 2.65016C16.0727 2.65016 17.0353 2.84971 17.986 3.26054C18.0154 3.27227 18.0447 3.28988 18.0799 3.30749V3.33683H18.1328C19.0307 3.74766 19.9052 4.36978 20.7445 5.20904C21.525 5.98962 22.1178 6.84062 22.5169 7.75032C22.916 8.66001 23.1273 9.59905 23.139 10.5322C23.1507 11.4713 22.9688 12.3986 22.5932 13.3024C22.2176 14.2003 21.6483 15.0337 20.8971 15.785L20.7327 15.9493C20.3688 15.6617 19.958 15.4094 19.465 15.2274C19.1129 15.0983 18.7314 15.0103 18.3147 14.9574V14.2825C18.3147 12.7448 18.0917 11.3656 17.6574 10.1801C17.2231 9.00041 16.6244 7.99681 15.8732 7.2045C15.1278 6.41219 14.2416 5.80181 13.2439 5.39098C12.2931 5.00363 11.266 4.79821 10.192 4.77474C10.8611 4.14089 11.6006 3.63028 12.3988 3.26641V3.25467ZM3.03771 11.7588C3.40745 10.8609 3.93566 10.0686 4.6106 9.41711C5.27966 8.76565 6.08958 8.24918 7.01688 7.89117L7.04036 7.91465L7.08144 7.87357C7.99114 7.52729 8.98886 7.35122 10.0688 7.35122C11.3189 7.35122 12.434 7.5449 13.3906 7.92639C14.3531 8.30787 15.1748 8.84195 15.838 9.51101C16.5012 10.1801 17.0118 10.9724 17.3463 11.8762C17.6808 12.7683 17.8452 13.7308 17.8452 14.7344V14.9164C17.6926 14.9046 17.54 14.8988 17.3815 14.8988H14.3296V14.9164C13.4317 14.1123 12.5103 13.4785 11.5771 13.0441C10.4326 12.5159 9.30579 12.2342 8.21416 12.199C7.12839 12.1638 6.06611 12.3575 5.06838 12.7742C4.12934 13.1674 3.26073 13.7484 2.49189 14.4879C2.51537 13.5137 2.6973 12.5981 3.03771 11.7647V11.7588ZM4.51082 23.7785C4.12347 24.7234 3.92392 25.7446 3.90045 26.8128C3.23138 26.1085 2.70904 25.3338 2.36277 24.5004C1.98716 23.6025 1.80522 22.6693 1.81695 21.7303C1.82869 20.7971 2.03998 19.8581 2.43907 18.9484H2.48015V18.8662C2.87924 17.9917 3.4544 17.1642 4.2115 16.413C5.09185 15.5326 6.01915 14.8753 6.96993 14.4703C7.92071 14.0595 8.87735 13.8541 9.82226 13.8599C10.7672 13.8599 11.6827 14.0654 12.5572 14.4644C13.1911 14.752 13.778 15.1394 14.3296 15.5972V18.7136H13.4082C11.8705 18.7136 10.4913 18.9366 9.30579 19.3709C8.12612 19.8052 7.12253 20.4039 6.33021 21.1551C5.5379 21.9005 4.92752 22.7867 4.51669 23.7844L4.51082 23.7785ZM10.8904 33.9847C9.99246 33.615 9.20015 33.0868 8.54869 32.4118C7.89723 31.7428 7.38076 30.9328 7.02275 30.0055L7.0521 29.9762L6.99341 29.9175C6.65301 29.0196 6.4828 28.0218 6.4828 26.9595C6.4828 25.7094 6.67648 24.5943 7.05797 23.6377C7.43945 22.6752 7.97353 21.8535 8.64259 21.1903C9.31166 20.5271 10.104 20.0165 11.0078 19.682C11.8999 19.3474 12.8624 19.1831 13.866 19.1831H14.3355V22.3817C13.3906 23.3794 12.657 24.4065 12.1757 25.4512C11.6475 26.5957 11.3658 27.7225 11.3306 28.8141C11.2954 29.8999 11.4891 30.9622 11.9058 31.9599C12.299 32.899 12.88 33.7676 13.6195 34.5364C12.6452 34.5129 11.7297 34.331 10.8963 33.9906L10.8904 33.9847ZM23.632 34.6597C22.734 35.0353 21.8009 35.2172 20.8618 35.2055C19.9287 35.1937 18.9896 34.9824 18.0799 34.5834V34.5423H17.9978C17.1233 34.1432 16.2958 33.568 15.5445 32.8109C14.6642 31.9306 14.0069 31.0033 13.6019 30.0525C13.1911 29.1017 12.9857 28.1451 12.9915 27.2002C12.9915 26.2553 13.1969 25.3397 13.596 24.4652C13.8014 24.0192 14.0538 23.5966 14.3473 23.1916H17.0353C17.317 23.1916 17.5869 23.1799 17.8452 23.1623C17.8569 24.7763 18.0154 26.1907 18.3147 27.3586C18.6258 28.5559 19.1246 29.5712 19.8054 30.3636C20.5919 31.2791 21.5016 31.9775 22.511 32.4353C23.5205 32.8931 24.6415 33.1278 25.8446 33.1278C25.874 33.1278 25.9033 33.1278 25.9385 33.1278C25.2342 33.7969 24.4595 34.3134 23.632 34.6597ZM33.1867 26.0205C32.8522 26.9184 32.3416 27.7166 31.6784 28.3857C31.0152 29.0548 30.1935 29.5888 29.231 29.9703C29.2017 29.9821 29.1665 29.9938 29.1313 30.0055L29.1019 29.9762L29.0432 30.0349C28.1277 30.3753 27.0712 30.5514 25.9033 30.5514C24.8058 30.5514 23.7787 30.3694 22.8514 30.0055C21.9241 29.6417 21.1142 29.1311 20.4451 28.4796C19.7761 27.8281 19.242 27.0358 18.8723 26.1379C18.5025 25.2399 18.3147 24.2422 18.3147 23.1858V23.1329C18.661 23.0919 18.9838 23.039 19.2772 22.9627C19.8876 22.8043 20.4041 22.5519 20.809 22.2056C20.8442 22.1763 20.8677 22.147 20.9029 22.1176C22.0532 23.2445 23.1566 24.1307 24.1954 24.7411C25.2636 25.369 26.3317 25.727 27.3764 25.8092C28.5796 25.9031 29.7182 25.7505 30.757 25.3632C31.7958 24.9758 32.7524 24.3478 33.6034 23.4968C33.6328 23.4675 33.6504 23.444 33.6797 23.4147C33.6562 24.3302 33.4919 25.2164 33.1867 26.0322V26.0205ZM33.7619 18.8486C33.7502 18.8779 33.7325 18.9073 33.7149 18.9425H33.6856V18.9953C33.2748 19.8933 32.6526 20.7677 31.8134 21.607C31.0328 22.3876 30.1818 22.9804 29.2721 23.3794C28.3624 23.7785 27.4234 23.9898 26.4902 24.0016C25.5512 24.0133 24.6239 23.8314 23.72 23.4557C22.8221 23.0801 21.9887 22.5108 21.2375 21.7596C21.4957 21.4662 21.707 21.1492 21.8654 20.8088C22.0943 20.31 22.2058 19.7641 22.2176 19.1772C23.8668 19.1655 25.3047 19.0129 26.4961 18.7019C27.6933 18.3908 28.7087 17.8919 29.501 17.2111C30.4166 16.4247 31.115 15.515 31.5728 14.5055C32.0305 13.4961 32.2653 12.3751 32.2653 11.1719C32.2653 11.1367 32.2653 11.0956 32.2653 11.0604C32.8991 11.7295 33.4039 12.4631 33.7678 13.2613C34.1669 14.1358 34.3723 15.0572 34.3723 15.9963C34.3723 16.9353 34.1727 17.8978 33.7619 18.8486Z" fill="#CC9C4A"/>
</svg>
